<svg xmlns="http://www.w3.org/2000/svg"  viewBox="0 0 64 64" width="64px" height="64px" baseProfile="basic"><ellipse cx="32" cy="61" opacity=".3" rx="20" ry="3"/><path fill="#6f7b91" d="M54,20v24c0,2.25-0.74,4.32-2,5.99V50c-1.69,2.24-4.29,3.75-7.25,3.97C44.51,53.99,44.25,54,44,54H20	c-5.52,0-10-4.48-10-10V20c0-0.25,0.01-0.51,0.03-0.75c0.22-2.96,1.73-5.56,3.97-7.25h0.01c1.67-1.26,3.74-2,5.99-2h24	C49.52,10,54,14.48,54,20z"/><path fill="#fff" d="M14.01,12H14c-2.24,1.69-3.75,4.29-3.97,7.25C10.01,19.49,10,19.75,10,20v12	c2.761,0,5-2.239,5-5v-7c0-0.108,0.003-0.221,0.017-0.38c0.102-1.375,0.778-2.65,1.862-3.525c0.048-0.033,0.095-0.068,0.142-0.103	C17.881,15.343,18.911,15,20,15h6c2.761,0,5-2.239,5-5H20C17.75,10,15.68,10.74,14.01,12z" opacity=".3"/><path d="M54,44V28c-2.761,0-5,2.238-5,5v11c0,2.757-2.243,5-5,5H33c-2.761,0-5,2.238-5,5h16 C49.523,54,54,49.523,54,44z" opacity=".15"/><path fill="none" stroke="#fff" stroke-linecap="round" stroke-linejoin="round" stroke-miterlimit="10" stroke-width="3" d="M13.5,23.5V20c0-0.153,0.005-0.312,0.018-0.459c0.135-1.809,1.003-3.46,2.396-4.594l0.204-0.152"/><path fill="#cd2e42" d="M40.074,17c-1.098,0-2.916,0-4.052,0C35.455,17,35,17.46,35,18.027l0,27.367	c0,0.884,0.685,1.599,1.566,1.68c1.464,0.135,2.729,0.428,3.529,0.648c0.458,0.126,0.905-0.217,0.905-0.692	c-0.003-4.643-0.013-24.564,0-29.108C41.001,17.41,40.586,17,40.074,17z"/><path fill="#cd2e42" d="M23.959,17h2.517C27.87,17,29,18.13,29,19.524L29,46.1c0,0.486-0.376,0.898-0.862,0.924	c-1.703,0.091-3.203,0.428-4.137,0.681c-0.508,0.138-1.006-0.238-1.006-0.764c-0.008-4.792,0.002-24.409,0.004-28.984	C23,17.427,23.429,17,23.959,17z"/><path fill="#fd3c4f" d="M27.998,17h-4.257c-0.355,0-0.598,0.359-0.466,0.689l11.31,28.276	c0.246,0.615,0.827,1.029,1.488,1.072c1.657,0.109,3.104,0.443,3.994,0.687c0.387,0.106,0.727-0.268,0.583-0.643	c-1.468-3.814-9.51-24.512-11.298-29.156C29.136,17.364,28.599,17,27.998,17z"/></svg>